<?xml version="1.0" standalone="no"?>
<!DOCTYPE svg PUBLIC "-//W3C//DTD SVG 20010904//EN"
 "http://www.w3.org/TR/2001/REC-SVG-20010904/DTD/svg10.dtd">
<svg version="1.0" xmlns="http://www.w3.org/2000/svg"
 width="84.000000pt" height="84.000000pt" viewBox="0 0 84.000000 84.000000"
 preserveAspectRatio="xMidYMid meet">
<metadata>
Created by potrace 1.11, written by Peter Selinger 2001-2013
</metadata>
<g transform="translate(0.000000,84.000000) scale(0.100000,-0.100000)"
fill="#000000" stroke="none">
<path d="M350 745 c-48 -48 -77 -70 -82 -62 -3 6 -4 15 -2 19 3 4 1 8 -5 8 -5
0 -11 -12 -13 -26 l-3 -25 -22 21 c-19 17 -23 18 -23 5 0 -9 -13 -21 -30 -26
-17 -6 -30 -14 -30 -19 0 -4 -9 -10 -19 -13 -16 -4 -19 -11 -15 -36 4 -26 2
-31 -15 -31 -18 0 -21 -6 -21 -42 0 -35 -6 -47 -35 -73 l-34 -32 126 -119 c69
-65 160 -152 202 -193 58 -57 84 -75 109 -77 20 -2 30 1 26 7 -3 6 16 31 43
56 243 230 323 310 323 328 0 13 -48 65 -132 145 -73 69 -146 139 -164 155
-17 17 -49 46 -70 67 l-39 36 -75 -73z m-175 -155 c-3 -5 -12 -10 -18 -10 -7
0 -6 4 3 10 19 12 23 12 15 0z"/>
<path d="M223 710 c-1 -11 2 -22 8 -25 5 -4 9 5 9 19 0 30 -15 35 -17 6z"/>
</g>
</svg>
